<svg width="37" height="37" viewBox="0 0 37 37" fill="none" xmlns="http://www.w3.org/2000/svg">
<path fill-rule="evenodd" clip-rule="evenodd" d="M18.5 3.125L18.4479 3.125C17.9833 3.12498 17.6871 3.12497 17.4215 3.13983C12.9891 3.38774 9.31931 6.67233 8.58344 11.0503C8.53933 11.3127 8.50664 11.607 8.45535 12.0688L8.45535 12.0688L8.4496 12.1205L8.06141 15.6143C7.94865 16.6291 7.90335 17.0137 7.81671 17.3795C7.72381 17.7717 7.59463 18.1544 7.43084 18.5227C7.2781 18.8661 7.08101 19.1995 6.55569 20.075L5.15616 22.4076L5.1068 22.4898C4.74695 23.0893 4.39509 23.6754 4.18626 24.1789C3.96375 24.7154 3.72509 25.5736 4.21569 26.4401C4.7063 27.3066 5.56495 27.5434 6.13948 27.6287C6.6787 27.7087 7.36231 27.7085 8.06145 27.7083L8.15738 27.7083H28.8426L28.9386 27.7083C29.6377 27.7085 30.3213 27.7087 30.8605 27.6287C31.4351 27.5434 32.2937 27.3066 32.7843 26.4401C33.2749 25.5736 33.0363 24.7154 32.8137 24.1789C32.6049 23.6754 32.2531 23.0893 31.8932 22.4899L31.8438 22.4076L30.4443 20.075C29.919 19.1995 29.7219 18.8661 29.5692 18.5227C29.4054 18.1544 29.2762 17.7717 29.1833 17.3795C29.0967 17.0137 29.0514 16.6291 28.9386 15.6143L28.8954 15.2257C28.5245 15.2963 28.1415 15.3333 27.75 15.3333C27.0885 15.3333 26.4517 15.2278 25.8555 15.0325L25.9569 15.9456L25.9672 16.0379C26.0663 16.9302 26.1301 17.5056 26.2641 18.071C26.3999 18.6442 26.5887 19.2035 26.828 19.7418C27.0642 20.2727 27.3621 20.7691 27.8241 21.5389L27.8718 21.6185L29.2714 23.9511C29.4473 24.2444 29.594 24.489 29.7173 24.7036C29.4698 24.7083 29.1846 24.7083 28.8426 24.7083H8.15738C7.81537 24.7083 7.53018 24.7083 7.28267 24.7036C7.40601 24.489 7.55267 24.2444 7.72864 23.9511L9.12817 21.6185L9.17594 21.5389C9.6379 20.7691 9.93584 20.2727 10.172 19.7418C10.4113 19.2035 10.6001 18.6442 10.7359 18.071C10.8699 17.5056 10.9337 16.9301 11.0328 16.0379L11.0328 16.0379L11.0431 15.9456L11.4313 12.4518C11.4902 11.9212 11.5136 11.7164 11.5419 11.5476C12.0454 8.55212 14.5563 6.30477 17.589 6.13515C17.76 6.12558 17.9661 6.125 18.5 6.125C19.0339 6.125 19.24 6.12558 19.411 6.13515C20.3902 6.18991 21.3149 6.46127 22.1353 6.90448C22.5329 5.95391 23.1648 5.12574 23.9588 4.49219C22.6642 3.70968 21.1705 3.22887 19.5785 3.13983C19.3129 3.12497 19.0167 3.12498 18.5521 3.125L18.5 3.125ZM26.3235 6.51579C25.3388 7.03061 24.6667 8.06182 24.6667 9.25C24.6667 9.28644 24.6673 9.32273 24.6686 9.35886C25.0038 9.9354 25.2537 10.57 25.4002 11.2464C25.9658 11.9115 26.8086 12.3333 27.75 12.3333C28.031 12.3333 28.3033 12.2957 28.562 12.2253L28.5504 12.1205L28.5447 12.0688L28.5447 12.0687C28.4934 11.607 28.4607 11.3126 28.4166 11.0503C28.1276 9.33089 27.386 7.78016 26.3235 6.51579Z" fill="#FF9F1C"/>
<path d="M14.0326 27.2331C14.2961 28.7082 14.8767 30.0117 15.6845 30.9414C16.4922 31.8711 17.4819 32.375 18.5 32.375C19.5181 32.375 20.5078 31.8711 21.3155 30.9414C22.1233 30.0117 22.7039 28.7082 22.9674 27.2331" stroke="#FF9F1C" stroke-width="2" stroke-linecap="round"/>
<path d="M27.75 13.3333C30.0052 13.3333 31.8333 11.5052 31.8333 9.24999C31.8333 6.99483 30.0052 5.16666 27.75 5.16666C25.4948 5.16666 23.6667 6.99483 23.6667 9.24999C23.6667 11.5052 25.4948 13.3333 27.75 13.3333Z" fill="#FF9F1C" stroke="#FF9F1C" stroke-width="2"/>
</svg>
