<svg width="31" height="31" viewBox="0 0 31 31" fill="none" xmlns="http://www.w3.org/2000/svg">
<path d="M15.7216 27.125H11.625C9.18939 27.125 7.97159 27.125 7.21495 26.3684C6.45831 25.6117 6.45831 24.3939 6.45831 21.9583V9.04167C6.45831 6.60608 6.45831 5.38828 7.21495 4.63164C7.97159 3.875 9.18939 3.875 11.625 3.875H19.375C21.8106 3.875 23.0284 3.875 23.785 4.63164C24.5416 5.38828 24.5416 6.60608 24.5416 9.04167V18.3049C24.5416 18.8329 24.5416 19.0969 24.4433 19.3343C24.345 19.5716 24.1583 19.7583 23.785 20.1316L17.5483 26.3684C17.175 26.7417 16.9883 26.9284 16.7509 27.0267C16.5136 27.125 16.2496 27.125 15.7216 27.125Z" stroke="black" stroke-width="2"/>
<path d="M15.5 27.125V21.0972C15.5 19.6765 15.5 18.9661 15.9414 18.5247C16.3827 18.0833 17.0931 18.0833 18.5139 18.0833H24.5417" stroke="black" stroke-width="2"/>
</svg>
