<svg width="31" height="32" viewBox="0 0 31 32" fill="none" xmlns="http://www.w3.org/2000/svg">
<path d="M5.16669 12.2865C5.16669 11.4868 5.16669 11.087 5.31291 10.7259C5.45914 10.3648 5.73733 10.0776 6.29373 9.50327L7.86289 7.88349C8.44419 7.28344 8.73484 6.98341 9.10876 6.82504C9.48269 6.66667 9.90041 6.66667 10.7359 6.66667H20.2642C21.0996 6.66667 21.5173 6.66667 21.8913 6.82504C22.2652 6.98341 22.5558 7.28344 23.1371 7.88349L24.7063 9.50327C25.2627 10.0776 25.5409 10.3648 25.6871 10.7259C25.8334 11.087 25.8334 11.4868 25.8334 12.2865V22.6667C25.8334 24.5523 25.8334 25.4951 25.2476 26.0809C24.6618 26.6667 23.719 26.6667 21.8334 26.6667H9.16668C7.28107 26.6667 6.33826 26.6667 5.75247 26.0809C5.16669 25.4951 5.16669 24.5523 5.16669 22.6667V12.2865Z" stroke="white" stroke-width="2"/>
<path d="M5.16669 13.3333H25.8334" stroke="white" stroke-width="2" stroke-linecap="round"/>
<path d="M19.1595 12L11.84 12C11.5356 12 11.3834 12 11.2888 12.0976C11.1942 12.1953 11.1942 12.3524 11.1942 12.6667L11.1942 18.2222C11.1942 19.242 11.1942 19.7518 11.322 20.0259C11.6072 20.6376 12.2921 20.9305 12.9128 20.7061C13.1909 20.6056 13.5402 20.245 14.2387 19.524C14.5622 19.19 14.724 19.023 14.896 18.9291C15.2737 18.723 15.7258 18.723 16.1035 18.9291C16.2755 19.023 16.4373 19.19 16.7608 19.524C17.4594 20.245 17.8086 20.6056 18.0867 20.7061C18.7074 20.9305 19.3924 20.6376 19.6776 20.0259C19.8053 19.7518 19.8053 19.242 19.8053 18.2222V12.6667C19.8053 12.3524 19.8053 12.1953 19.7107 12.0976C19.6162 12 19.4639 12 19.1595 12Z" fill="white"/>
</svg>
