<svg width="21" height="21" viewBox="0 0 21 21" fill="none" xmlns="http://www.w3.org/2000/svg">
<path d="M2.625 1.21875C1.84835 1.21875 1.21875 1.84835 1.21875 2.625C1.21875 3.40165 1.84835 4.03125 2.625 4.03125V1.21875ZM4.8125 2.625L6.17676 2.28393C6.02026 1.65792 5.45778 1.21875 4.8125 1.21875V2.625ZM16.625 15.4063C17.4017 15.4063 18.0313 14.7767 18.0313 14C18.0313 13.2234 17.4017 12.5938 16.625 12.5938V15.4063ZM18.375 4.375L19.7393 4.71607C19.8443 4.29596 19.7499 3.8509 19.4834 3.50958C19.2169 3.16826 18.808 2.96875 18.375 2.96875V4.375ZM16.625 11.375V12.7813C17.2703 12.7813 17.8328 12.3421 17.9893 11.7161L16.625 11.375ZM2.625 4.03125H4.8125V1.21875H2.625V4.03125ZM3.44824 2.96607L3.88574 4.71607L6.61426 4.03393L6.17676 2.28393L3.44824 2.96607ZM3.88574 4.71607L5.63574 11.7161L8.36426 11.0339L6.61426 4.03393L3.88574 4.71607ZM7 9.96875H6.5625V12.7813H7V9.96875ZM6.5625 15.4063H16.625V12.5938H6.5625V15.4063ZM3.84375 12.6875C3.84375 14.189 5.06098 15.4063 6.5625 15.4063V12.5938C6.61428 12.5938 6.65625 12.6357 6.65625 12.6875H3.84375ZM6.5625 9.96875C5.06098 9.96875 3.84375 11.186 3.84375 12.6875H6.65625C6.65625 12.7393 6.61428 12.7813 6.5625 12.7813V9.96875ZM5.25 5.78125H18.375V2.96875H5.25V5.78125ZM17.0107 4.03393L15.2607 11.0339L17.9893 11.7161L19.7393 4.71607L17.0107 4.03393ZM16.625 9.96875H7V12.7813H16.625V9.96875ZM15.2188 17.5C15.2188 17.2066 15.4566 16.9688 15.75 16.9688V19.7813C17.0099 19.7813 18.0313 18.7599 18.0313 17.5H15.2188ZM15.75 16.9688C16.0434 16.9688 16.2813 17.2066 16.2813 17.5H13.4688C13.4688 18.7599 14.4901 19.7813 15.75 19.7813V16.9688ZM16.2813 17.5C16.2813 17.7934 16.0434 18.0313 15.75 18.0313V15.2188C14.4901 15.2188 13.4688 16.2401 13.4688 17.5H16.2813ZM15.75 18.0313C15.4566 18.0313 15.2188 17.7934 15.2188 17.5H18.0313C18.0313 16.2401 17.0099 15.2188 15.75 15.2188V18.0313ZM6.46875 17.5C6.46875 17.2066 6.7066 16.9688 7 16.9688V19.7813C8.2599 19.7813 9.28125 18.7599 9.28125 17.5H6.46875ZM7 16.9688C7.2934 16.9688 7.53125 17.2066 7.53125 17.5H4.71875C4.71875 18.7599 5.7401 19.7813 7 19.7813V16.9688ZM7.53125 17.5C7.53125 17.7934 7.2934 18.0313 7 18.0313V15.2188C5.7401 15.2188 4.71875 16.2401 4.71875 17.5H7.53125ZM7 18.0313C6.7066 18.0313 6.46875 17.7934 6.46875 17.5H9.28125C9.28125 16.2401 8.2599 15.2188 7 15.2188V18.0313Z" fill="#283246"/>
</svg>
