<svg width="39" height="39" viewBox="0 0 39 39" fill="none" xmlns="http://www.w3.org/2000/svg">
<path d="M4.875 3.46875C4.09835 3.46875 3.46875 4.09835 3.46875 4.875C3.46875 5.65165 4.09835 6.28125 4.875 6.28125L4.875 3.46875ZM8.9375 4.875L10.3018 4.53393C10.1453 3.90792 9.58278 3.46875 8.9375 3.46875V4.875ZM30.875 27.4062C31.6516 27.4062 32.2812 26.7766 32.2812 26C32.2812 25.2233 31.6516 24.5937 30.875 24.5937V27.4062ZM34.125 8.125L35.4893 8.46607C35.5943 8.04596 35.4999 7.6009 35.2334 7.25958C34.9669 6.91826 34.558 6.71875 34.125 6.71875V8.125ZM30.875 21.125V22.5312C31.5203 22.5312 32.0828 22.0921 32.2393 21.4661L30.875 21.125ZM4.875 6.28125H8.9375V3.46875H4.875L4.875 6.28125ZM7.57324 5.21607L8.38574 8.46607L11.1143 7.78393L10.3018 4.53393L7.57324 5.21607ZM8.38574 8.46607L11.6357 21.4661L14.3643 20.7839L11.1143 7.78393L8.38574 8.46607ZM13 19.7187H12.1875V22.5312H13V19.7187ZM12.1875 27.4062H30.875V24.5937H12.1875V27.4062ZM8.34375 23.5625C8.34375 25.6853 10.0647 27.4062 12.1875 27.4062V24.5937C11.618 24.5937 11.1562 24.132 11.1562 23.5625H8.34375ZM12.1875 19.7187C10.0647 19.7187 8.34375 21.4397 8.34375 23.5625H11.1562C11.1562 22.993 11.618 22.5312 12.1875 22.5312V19.7187ZM9.75 9.53125H34.125V6.71875H9.75V9.53125ZM32.7607 7.78393L29.5107 20.7839L32.2393 21.4661L35.4893 8.46607L32.7607 7.78393ZM30.875 19.7187H13V22.5312H30.875V19.7187ZM29.4687 32.5C29.4687 32.6208 29.3708 32.7187 29.25 32.7187V35.5312C30.9241 35.5312 32.2812 34.1741 32.2812 32.5H29.4687ZM29.25 32.7187C29.1292 32.7187 29.0312 32.6208 29.0312 32.5H26.2187C26.2187 34.1741 27.5759 35.5312 29.25 35.5312V32.7187ZM29.0312 32.5C29.0312 32.3792 29.1292 32.2812 29.25 32.2812V29.4687C27.5759 29.4687 26.2187 30.8259 26.2187 32.5H29.0312ZM29.25 32.2812C29.3708 32.2812 29.4687 32.3792 29.4687 32.5H32.2812C32.2812 30.8259 30.9241 29.4687 29.25 29.4687V32.2812ZM13.2187 32.5C13.2187 32.6208 13.1208 32.7187 13 32.7187V35.5312C14.6741 35.5312 16.0312 34.1741 16.0312 32.5H13.2187ZM13 32.7187C12.8792 32.7187 12.7812 32.6208 12.7812 32.5H9.96875C9.96875 34.1741 11.3259 35.5312 13 35.5312V32.7187ZM12.7812 32.5C12.7812 32.3792 12.8792 32.2812 13 32.2812V29.4687C11.3259 29.4687 9.96875 30.8259 9.96875 32.5H12.7812ZM13 32.2812C13.1208 32.2812 13.2187 32.3792 13.2187 32.5H16.0312C16.0312 30.8259 14.6741 29.4687 13 29.4687V32.2812Z" fill="#FF9F1C"/>
</svg>
