<svg width="37" height="39" viewBox="0 0 37 39" fill="none" xmlns="http://www.w3.org/2000/svg">
<path d="M29.4046 9.38879L30.236 8.83322L30.236 8.83322L29.4046 9.38879ZM29.4046 26.3612L30.236 26.9168H30.236L29.4046 26.3612ZM27.6112 28.1546L28.1668 28.986V28.986L27.6112 28.1546ZM20.75 29.2478L20.7456 28.2478C20.1951 28.2502 19.75 28.6972 19.75 29.2478H20.75ZM20.75 29.25L21.6444 29.6972C21.7139 29.5584 21.75 29.4052 21.75 29.25H20.75ZM14.25 29.25H13.25C13.25 29.4052 13.2861 29.5584 13.3556 29.6972L14.25 29.25ZM14.25 29.2478H15.25C15.25 28.6972 14.8049 28.2502 14.2544 28.2478L14.25 29.2478ZM7.38879 28.1546L6.83322 28.986L6.83322 28.986L7.38879 28.1546ZM5.59545 26.3612L4.76398 26.9168H4.76398L5.59545 26.3612ZM5.59545 9.38879L6.42692 9.94436L6.42692 9.94436L5.59545 9.38879ZM7.38879 7.59545L7.94436 8.42692L7.94436 8.42692L7.38879 7.59545ZM27.6112 7.59545L28.1668 6.76398V6.76398L27.6112 7.59545ZM31.5 17.875C31.5 15.6136 31.5012 13.8422 31.3579 12.4338C31.213 11.0087 30.9118 9.84465 30.236 8.83322L28.5731 9.94436C28.9927 10.5724 29.2393 11.3692 29.3682 12.6362C29.4988 13.9199 29.5 15.5719 29.5 17.875H31.5ZM30.236 26.9168C30.9118 25.9054 31.213 24.7413 31.3579 23.3162C31.5012 21.9078 31.5 20.1364 31.5 17.875H29.5C29.5 20.1781 29.4988 21.8301 29.3682 23.1138C29.2393 24.3808 28.9927 25.1776 28.5731 25.8056L30.236 26.9168ZM28.1668 28.986C28.9857 28.4388 29.6888 27.7357 30.236 26.9168L28.5731 25.8056C28.1718 26.4062 27.6562 26.9218 27.0556 27.3231L28.1668 28.986ZM20.7544 30.2478C22.5027 30.2402 23.9226 30.207 25.0953 30.0449C26.2841 29.8806 27.2834 29.5763 28.1668 28.986L27.0556 27.3231C26.5069 27.6898 25.8287 27.9245 24.8214 28.0637C23.7981 28.2052 22.5035 28.2401 20.7456 28.2478L20.7544 30.2478ZM21.75 29.25V29.2478H19.75V29.25H21.75ZM19.2889 34.4084L21.6444 29.6972L19.8556 28.8028L17.5 33.5139L19.2889 34.4084ZM15.7111 34.4084C16.4482 35.8825 18.5518 35.8825 19.2889 34.4084L17.5 33.5139L17.5 33.5139L15.7111 34.4084ZM13.3556 29.6972L15.7111 34.4084L17.5 33.5139L15.1444 28.8028L13.3556 29.6972ZM13.25 29.2478V29.25H15.25V29.2478H13.25ZM6.83322 28.986C7.71664 29.5763 8.71594 29.8806 9.90469 30.0449C11.0774 30.207 12.4973 30.2402 14.2456 30.2478L14.2544 28.2478C12.4965 28.2401 11.2019 28.2052 10.1785 28.0637C9.17132 27.9245 8.49315 27.6898 7.94436 27.3231L6.83322 28.986ZM4.76398 26.9168C5.31117 27.7357 6.0143 28.4388 6.83322 28.986L7.94436 27.3231C7.34382 26.9218 6.82819 26.4062 6.42692 25.8056L4.76398 26.9168ZM3.5 17.875C3.5 20.1364 3.49879 21.9078 3.64207 23.3162C3.78704 24.7413 4.08817 25.9054 4.76398 26.9168L6.42692 25.8056C6.00728 25.1776 5.76068 24.3808 5.6318 23.1138C5.50121 21.8301 5.5 20.1781 5.5 17.875H3.5ZM4.76398 8.83322C4.08817 9.84465 3.78704 11.0087 3.64207 12.4338C3.49879 13.8422 3.5 15.6136 3.5 17.875H5.5C5.5 15.5719 5.50121 13.9199 5.6318 12.6362C5.76068 11.3692 6.00728 10.5724 6.42692 9.94436L4.76398 8.83322ZM6.83322 6.76398C6.0143 7.31117 5.31117 8.0143 4.76398 8.83322L6.42692 9.94436C6.82819 9.34382 7.34382 8.82819 7.94436 8.42692L6.83322 6.76398ZM15.875 5.5C13.6136 5.5 11.8422 5.49879 10.4338 5.64207C9.00867 5.78704 7.84465 6.08817 6.83322 6.76398L7.94436 8.42692C8.57239 8.00728 9.36922 7.76068 10.6362 7.6318C11.9199 7.50121 13.5719 7.5 15.875 7.5V5.5ZM19.125 5.5H15.875V7.5H19.125V5.5ZM28.1668 6.76398C27.1554 6.08817 25.9913 5.78704 24.5662 5.64207C23.1578 5.49879 21.3864 5.5 19.125 5.5V7.5C21.4281 7.5 23.0801 7.50121 24.3638 7.6318C25.6308 7.76068 26.4276 8.00728 27.0556 8.42692L28.1668 6.76398ZM30.236 8.83322C29.6888 8.0143 28.9857 7.31117 28.1668 6.76398L27.0556 8.42692C27.6562 8.82819 28.1718 9.34382 28.5731 9.94436L30.236 8.83322Z" fill="black"/>
<circle cx="24" cy="17.875" r="1.625" fill="black" stroke="black" stroke-linecap="round"/>
<circle cx="17.5" cy="17.875" r="1.625" fill="black" stroke="black" stroke-linecap="round"/>
<circle cx="11" cy="17.875" r="1.625" fill="black" stroke="black" stroke-linecap="round"/>
</svg>
