<svg width="8" height="6" viewBox="0 0 8 6" fill="none" xmlns="http://www.w3.org/2000/svg">
<path d="M7.14645 0.896446C7.34171 0.701184 7.65829 0.701184 7.85355 0.896446C8.04882 1.09171 8.04882 1.40829 7.85355 1.60355L7.14645 0.896446ZM4 4.75L4.35355 5.10355L4 5.45711L3.64645 5.10355L4 4.75ZM0.146447 1.60355C-0.0488159 1.40829 -0.0488159 1.09171 0.146447 0.896447C0.341708 0.701185 0.658291 0.701185 0.853553 0.896447L0.146447 1.60355ZM7.85355 1.60355L4.35355 5.10355L3.64645 4.39645L7.14645 0.896446L7.85355 1.60355ZM3.64645 5.10355L0.146447 1.60355L0.853553 0.896447L4.35355 4.39645L3.64645 5.10355Z" fill="#FF9F1C"/>
</svg>
