<svg width="32" height="32" viewBox="0 0 32 32" fill="none" xmlns="http://www.w3.org/2000/svg">
<path d="M18.6666 9.3335V9.3335C18.6666 7.44788 18.6666 6.50507 18.0809 5.91928C18.0809 5.91928 18.0809 5.91928 18.0809 5.91928C17.4951 5.3335 16.5523 5.3335 14.6666 5.3335H9.33331C7.44769 5.3335 6.50489 5.3335 5.9191 5.91928C5.33331 6.50507 5.33331 7.44788 5.33331 9.33349V14.6668C5.33331 16.5524 5.33331 17.4953 5.9191 18.081C5.9191 18.081 5.9191 18.081 5.9191 18.081C6.50489 18.6668 7.44769 18.6668 9.33331 18.6668V18.6668" stroke="#F2F2F2" stroke-width="2"/>
<rect x="13.3333" y="13.3335" width="13.3333" height="13.3333" rx="2" stroke="#F2F2F2" stroke-width="2"/>
</svg>
