<svg width="31" height="31" viewBox="0 0 31 31" fill="none" xmlns="http://www.w3.org/2000/svg">
<path d="M8.39583 10.625C7.84355 10.625 7.39583 11.0727 7.39583 11.625C7.39583 12.1773 7.84355 12.625 8.39583 12.625V10.625ZM13.5662 6.79058L12.6378 7.16197L13.5662 6.79058ZM14.0829 8.08224L15.0114 7.71085L14.0829 8.08224ZM26.125 16.7917V20.6667H28.125V16.7917H26.125ZM21.9583 24.8333H9.04167V26.8333H21.9583V24.8333ZM4.875 20.6667V7.75H2.875V20.6667H4.875ZM6.45833 6.16667H11.1677V4.16667H6.45833V6.16667ZM12.6378 7.16197L13.1544 8.45363L15.0114 7.71085L14.4947 6.41919L12.6378 7.16197ZM11.6843 10.625H8.39583V12.625H11.6843V10.625ZM8.39583 12.625H21.9583V10.625H8.39583V12.625ZM11.1677 6.16667C11.6132 6.16667 11.8668 6.16807 12.0525 6.18846C12.2136 6.20615 12.2247 6.22969 12.2057 6.21682L13.3269 4.56068C12.9799 4.32573 12.6153 4.23824 12.2708 4.20041C11.9509 4.16528 11.5692 4.16667 11.1677 4.16667V6.16667ZM14.4947 6.41919C14.3456 6.04637 14.2051 5.69145 14.0537 5.40748C13.8906 5.10171 13.674 4.79563 13.3269 4.56068L12.2057 6.21682C12.1867 6.20395 12.2127 6.20554 12.2889 6.34854C12.3768 6.51334 12.4723 6.74829 12.6378 7.16197L14.4947 6.41919ZM13.1544 8.45363C13.4877 9.28672 13.6931 9.80735 13.7844 10.1907C13.8709 10.554 13.7941 10.5553 13.8337 10.4969L15.4898 11.6181C15.9136 10.9921 15.8684 10.3084 15.73 9.72725C15.5963 9.16614 15.3202 8.48292 15.0114 7.71085L13.1544 8.45363ZM11.6843 12.625C12.5159 12.625 13.2528 12.6276 13.8234 12.5433C14.4143 12.456 15.066 12.2441 15.4898 11.6181L13.8337 10.4969C13.8733 10.4384 13.9006 10.5102 13.5311 10.5648C13.1413 10.6224 12.5816 10.625 11.6843 10.625V12.625ZM9.04167 24.8333C7.7956 24.8333 6.96165 24.8312 6.3403 24.7477C5.74771 24.668 5.5003 24.5311 5.33875 24.3696L3.92453 25.7838C4.51962 26.3789 5.25943 26.6203 6.0738 26.7298C6.8594 26.8355 7.85214 26.8333 9.04167 26.8333V24.8333ZM2.875 20.6667C2.875 21.8562 2.87288 22.8489 2.9785 23.6345C3.08799 24.4489 3.32944 25.1887 3.92453 25.7838L5.33875 24.3696C5.1772 24.208 5.04033 23.9606 4.96066 23.368C4.87712 22.7467 4.875 21.9127 4.875 20.6667H2.875ZM26.125 20.6667C26.125 21.9127 26.1229 22.7467 26.0393 23.368C25.9597 23.9606 25.8228 24.208 25.6613 24.3696L27.0755 25.7838C27.6706 25.1887 27.912 24.4489 28.0215 23.6345C28.1271 22.8489 28.125 21.8562 28.125 20.6667H26.125ZM21.9583 26.8333C23.1479 26.8333 24.1406 26.8355 24.9262 26.7298C25.7406 26.6203 26.4804 26.3789 27.0755 25.7838L25.6613 24.3696C25.4997 24.5311 25.2523 24.668 24.6597 24.7477C24.0383 24.8312 23.2044 24.8333 21.9583 24.8333V26.8333ZM28.125 16.7917C28.125 15.6021 28.1271 14.6094 28.0215 13.8238C27.912 13.0094 27.6706 12.2696 27.0755 11.6745L25.6613 13.0888C25.8228 13.2503 25.9597 13.4977 26.0393 14.0903C26.1229 14.7117 26.125 15.5456 26.125 16.7917H28.125ZM21.9583 12.625C23.2044 12.625 24.0383 12.6271 24.6597 12.7107C25.2523 12.7903 25.4997 12.9272 25.6613 13.0888L27.0755 11.6745C26.4804 11.0794 25.7406 10.838 24.9262 10.7285C24.1406 10.6229 23.1479 10.625 21.9583 10.625V12.625ZM4.875 7.75C4.875 7.11284 4.87712 6.73556 4.91337 6.46594C4.94575 6.22509 4.98804 6.22449 4.96043 6.2521L3.54621 4.83789C3.14028 5.24381 2.99341 5.73682 2.93121 6.19945C2.87288 6.63331 2.875 7.16938 2.875 7.75H4.875ZM6.45833 4.16667C5.87771 4.16667 5.34164 4.16455 4.90778 4.22288C4.44515 4.28508 3.95214 4.43196 3.54621 4.83789L4.96043 6.2521C4.93282 6.27971 4.93342 6.23743 5.17427 6.20504C5.44389 6.1688 5.82117 6.16667 6.45833 6.16667V4.16667Z" fill="black"/>
</svg>
