<svg width="28" height="28" viewBox="0 0 28 28" fill="none" xmlns="http://www.w3.org/2000/svg">
<path d="M3.5 7.5C3.5 5.61438 3.5 4.67157 4.08579 4.08579C4.67157 3.5 5.61438 3.5 7.5 3.5H20.5C22.3856 3.5 23.3284 3.5 23.9142 4.08579C24.5 4.67157 24.5 5.61438 24.5 7.5V20.5C24.5 22.3856 24.5 23.3284 23.9142 23.9142C23.3284 24.5 22.3856 24.5 20.5 24.5H7.5C5.61438 24.5 4.67157 24.5 4.08579 23.9142C3.5 23.3284 3.5 22.3856 3.5 20.5V7.5Z" stroke="#F2F2F2" stroke-width="2"/>
<path d="M3.5 8.1665H7.33333C8.31476 8.1665 8.80547 8.1665 9.22776 8.37765C9.65005 8.5888 9.94448 8.98137 10.5333 9.76651L11.6333 11.2332C12.2222 12.0183 12.5166 12.4109 12.9389 12.622C13.3612 12.8332 13.8519 12.8332 14.8333 12.8332H21C22.4045 12.8332 23.1067 12.8332 23.6111 12.4961C23.8295 12.3502 24.017 12.1627 24.1629 11.9443C24.5 11.4399 24.5 10.7376 24.5 9.33317V9.33317" stroke="#F2F2F2" stroke-width="2"/>
<path d="M8.16669 18.6665H17.5" stroke="#F2F2F2" stroke-width="2" stroke-linecap="round"/>
</svg>
