<svg width="38" height="36" viewBox="0 0 38 36" fill="none" xmlns="http://www.w3.org/2000/svg">
<path d="M12.6667 4.5H7.75002C6.33581 4.5 5.6287 4.5 5.18936 4.93934C4.75002 5.37868 4.75002 6.08579 4.75002 7.5V12" stroke="#FF9F1C" stroke-width="3" stroke-linecap="round"/>
<path d="M12.6667 31.5H7.75002C6.33581 31.5 5.6287 31.5 5.18936 31.0607C4.75002 30.6214 4.75002 29.9142 4.75002 28.5V24" stroke="#FF9F1C" stroke-width="3" stroke-linecap="round"/>
<path d="M25.3333 4.5H30.25C31.6642 4.5 32.3713 4.5 32.8106 4.93934C33.25 5.37868 33.25 6.08579 33.25 7.5V12" stroke="#FF9F1C" stroke-width="3" stroke-linecap="round"/>
<path d="M25.3333 31.5H30.25C31.6642 31.5 32.3713 31.5 32.8106 31.0607C33.25 30.6214 33.25 29.9142 33.25 28.5V24" stroke="#FF9F1C" stroke-width="3" stroke-linecap="round"/>
</svg>
