<svg width="31" height="32" viewBox="0 0 31 32" fill="none" xmlns="http://www.w3.org/2000/svg">
<path d="M3.875 12.6665C3.875 11.7237 3.875 11.2523 4.16789 10.9594C4.46079 10.6665 4.93219 10.6665 5.875 10.6665H25.125C26.0678 10.6665 26.5392 10.6665 26.8321 10.9594C27.125 11.2523 27.125 11.7237 27.125 12.6665V15.3957C27.125 16.2778 27.125 16.7189 26.866 17.0047C26.844 17.029 26.8208 17.0521 26.7966 17.0741C26.5107 17.3332 26.0697 17.3332 25.1875 17.3332V17.3332C24.3053 17.3332 23.8643 17.3332 23.5784 17.5922C23.5542 17.6142 23.531 17.6374 23.509 17.6616C23.25 17.9474 23.25 18.3885 23.25 19.2707V24.6665C23.25 25.6093 23.25 26.0807 22.9571 26.3736C22.6642 26.6665 22.1928 26.6665 21.25 26.6665H9.75C8.80719 26.6665 8.33579 26.6665 8.04289 26.3736C7.75 26.0807 7.75 25.6093 7.75 24.6665V19.2707C7.75 18.3885 7.75 17.9474 7.49095 17.6616C7.46897 17.6374 7.44581 17.6142 7.42156 17.5922C7.13574 17.3332 6.69466 17.3332 5.8125 17.3332V17.3332C4.93034 17.3332 4.48926 17.3332 4.20344 17.0741C4.17919 17.0521 4.15603 17.029 4.13405 17.0047C3.875 16.7189 3.875 16.2778 3.875 15.3957V12.6665Z" stroke="white" stroke-width="2"/>
<path d="M6.45825 17.3335H24.5416" stroke="white" stroke-width="2" stroke-linecap="round"/>
<path d="M15.5 9.3335L15.5 26.6668" stroke="white" stroke-width="2" stroke-linecap="round"/>
<path d="M15.4999 9.33333L14.1027 7.89107C12.8984 6.64791 11.4177 5.70649 9.78109 5.14334L9.10898 4.91208C7.81046 4.46528 6.45825 5.43001 6.45825 6.80326V7.90642C6.45825 8.76019 7.00021 9.51981 7.80752 9.7976L10.3333 10.6667" stroke="white" stroke-width="2" stroke-linecap="round"/>
<path d="M15.5001 9.33333L16.8973 7.89107C18.1016 6.64791 19.5822 5.70649 21.2189 5.14334L21.891 4.91208C23.1895 4.46528 24.5417 5.43001 24.5417 6.80326V7.90642C24.5417 8.76019 23.9998 9.51981 23.1925 9.7976L20.6667 10.6667" stroke="white" stroke-width="2" stroke-linecap="round"/>
</svg>
