<svg width="31" height="32" viewBox="0 0 31 32" fill="none" xmlns="http://www.w3.org/2000/svg">
<path d="M3.875 12.6667C3.875 11.7239 3.875 11.2525 4.16789 10.9596C4.46079 10.6667 4.93219 10.6667 5.875 10.6667H25.125C26.0678 10.6667 26.5392 10.6667 26.8321 10.9596C27.125 11.2525 27.125 11.7239 27.125 12.6667V15.3958C27.125 16.278 27.125 16.7191 26.866 17.0049C26.844 17.0291 26.8208 17.0523 26.7966 17.0743C26.5107 17.3333 26.0697 17.3333 25.1875 17.3333V17.3333C24.3053 17.3333 23.8643 17.3333 23.5784 17.5924C23.5542 17.6144 23.531 17.6375 23.509 17.6618C23.25 17.9476 23.25 18.3887 23.25 19.2708V24.6667C23.25 25.6095 23.25 26.0809 22.9571 26.3738C22.6642 26.6667 22.1928 26.6667 21.25 26.6667H9.75C8.80719 26.6667 8.33579 26.6667 8.04289 26.3738C7.75 26.0809 7.75 25.6095 7.75 24.6667V19.2708C7.75 18.3887 7.75 17.9476 7.49095 17.6618C7.46897 17.6375 7.44581 17.6144 7.42156 17.5924C7.13574 17.3333 6.69466 17.3333 5.8125 17.3333V17.3333C4.93034 17.3333 4.48926 17.3333 4.20344 17.0743C4.17919 17.0523 4.15603 17.0291 4.13405 17.0049C3.875 16.7191 3.875 16.278 3.875 15.3958V12.6667Z" stroke="black" stroke-width="2"/>
<path d="M6.45831 17.3333H24.5416" stroke="black" stroke-width="2" stroke-linecap="round"/>
<path d="M15.5 9.33334L15.5 26.6667" stroke="black" stroke-width="2" stroke-linecap="round"/>
<path d="M15.5 9.33333L14.1028 7.89107C12.8985 6.64791 11.4178 5.70649 9.78115 5.14334L9.10904 4.91208C7.81052 4.46528 6.45831 5.43001 6.45831 6.80326V7.90642C6.45831 8.76019 7.00027 9.51981 7.80759 9.7976L10.3333 10.6667" stroke="black" stroke-width="2" stroke-linecap="round"/>
<path d="M15.5 9.33333L16.8972 7.89107C18.1015 6.64791 19.5822 5.70649 21.2188 5.14334L21.891 4.91208C23.1895 4.46528 24.5417 5.43001 24.5417 6.80326V7.90642C24.5417 8.76019 23.9997 9.51981 23.1924 9.7976L20.6667 10.6667" stroke="black" stroke-width="2" stroke-linecap="round"/>
</svg>
