<svg width="31" height="31" viewBox="0 0 31 31" fill="none" xmlns="http://www.w3.org/2000/svg">
<path d="M11.625 7.75C11.625 8.25887 11.7252 8.76276 11.92 9.2329C12.1147 9.70304 12.4001 10.1302 12.76 10.49C13.1198 10.8499 13.547 11.1353 14.0171 11.33C14.4872 11.5248 14.9911 11.625 15.5 11.625C16.0089 11.625 16.5128 11.5248 16.9829 11.33C17.453 11.1353 17.8802 10.8499 18.24 10.49C18.5999 10.1302 18.8853 9.70303 19.08 9.2329C19.2748 8.76276 19.375 8.25887 19.375 7.75C19.375 7.24113 19.2748 6.73724 19.08 6.2671C18.8853 5.79696 18.5999 5.36979 18.24 5.00996C17.8802 4.65013 17.453 4.3647 16.9829 4.16997C16.5128 3.97523 16.0089 3.875 15.5 3.875C14.9911 3.875 14.4872 3.97523 14.0171 4.16997C13.547 4.3647 13.1198 4.65014 12.76 5.00996C12.4001 5.36979 12.1147 5.79697 11.92 6.2671C11.7252 6.73724 11.625 7.24113 11.625 7.75L11.625 7.75Z" stroke="black" stroke-width="2"/>
<path d="M5.73217 17.9561C5.29147 18.2105 4.9052 18.5493 4.59542 18.953C4.28564 19.3567 4.05841 19.8175 3.9267 20.309C3.795 20.8006 3.7614 21.3132 3.82782 21.8177C3.89424 22.3223 4.05938 22.8088 4.31382 23.2495C4.56825 23.6901 4.907 24.0764 5.31072 24.3862C5.71443 24.696 6.17521 24.9232 6.66674 25.0549C7.15828 25.1866 7.67094 25.2202 8.17546 25.1538C8.67997 25.0874 9.16647 24.9222 9.60717 24.6678C10.0479 24.4134 10.4341 24.0746 10.7439 23.6709C11.0537 23.2672 11.2809 22.8064 11.4126 22.3149C11.5443 21.8233 11.5779 21.3107 11.5115 20.8062C11.4451 20.3016 11.2799 19.8151 11.0255 19.3745C10.7711 18.9338 10.4323 18.5475 10.0286 18.2377C9.6249 17.9279 9.16412 17.7007 8.67259 17.569C8.18105 17.4373 7.66839 17.4037 7.16387 17.4701C6.65935 17.5365 6.17286 17.7017 5.73216 17.9561L5.73217 17.9561Z" stroke="black" stroke-width="2"/>
<path d="M25.2678 17.9561C25.7085 18.2105 26.0948 18.5493 26.4046 18.953C26.7144 19.3567 26.9416 19.8175 27.0733 20.309C27.205 20.8006 27.2386 21.3132 27.1722 21.8177C27.1058 22.3223 26.9406 22.8088 26.6862 23.2495C26.4317 23.6902 26.093 24.0764 25.6893 24.3862C25.2856 24.696 24.8248 24.9232 24.3333 25.0549C23.8417 25.1866 23.3291 25.2202 22.8245 25.1538C22.32 25.0874 21.8335 24.9222 21.3928 24.6678C20.9521 24.4134 20.5659 24.0746 20.2561 23.6709C19.9463 23.2672 19.7191 22.8064 19.5874 22.3149C19.4557 21.8233 19.4221 21.3107 19.4885 20.8062C19.5549 20.3017 19.7201 19.8152 19.9745 19.3745C20.2289 18.9338 20.5677 18.5475 20.9714 18.2377C21.3751 17.9279 21.8359 17.7007 22.3274 17.569C22.8189 17.4373 23.3316 17.4037 23.8361 17.4701C24.3406 17.5365 24.8271 17.7017 25.2678 17.9561L25.2678 17.9561Z" stroke="black" stroke-width="2"/>
<path fill-rule="evenodd" clip-rule="evenodd" d="M11.6619 8.28441C11.6373 8.10786 11.6249 7.92943 11.6249 7.75039C11.6249 7.24152 11.7252 6.73763 11.9199 6.26749C11.9577 6.17621 11.9989 6.08656 12.0435 5.99869C11.7461 6.09392 11.4523 6.20155 11.1629 6.32142C9.78791 6.89098 8.53854 7.72578 7.48614 8.77818C6.43374 9.83058 5.59894 11.08 5.02938 12.455C4.45983 13.83 4.16669 15.3037 4.16669 16.7921C4.16669 17.6018 4.25347 18.4073 4.42433 19.1948C4.47816 19.1123 4.53521 19.0318 4.59536 18.9534C4.90514 18.5497 5.29141 18.2109 5.73211 17.9565C5.88716 17.867 6.04789 17.7885 6.21308 17.7215C6.18223 17.4132 6.16669 17.103 6.16669 16.7921C6.16669 15.5664 6.4081 14.3527 6.87714 13.2203C7.34619 12.088 8.03367 11.0591 8.90035 10.1924C9.69857 9.39418 10.6344 8.74797 11.6619 8.28441ZM19.338 8.28434C20.3656 8.74789 21.3014 9.39413 22.0997 10.1924C22.9664 11.0591 23.6538 12.088 24.1229 13.2203C24.5919 14.3527 24.8334 15.5664 24.8334 16.7921C24.8334 17.103 24.8178 17.4133 24.7869 17.7216C24.9521 17.7886 25.1127 17.867 25.2678 17.9565C25.7085 18.2109 26.0947 18.5497 26.4045 18.9534C26.4647 19.0319 26.5218 19.1125 26.5757 19.1951C26.7466 18.4074 26.8334 17.6019 26.8334 16.7921C26.8334 15.3037 26.5402 13.83 25.9707 12.455C25.4011 11.0799 24.5663 9.83057 23.5139 8.77817C22.4615 7.72578 21.2121 6.89097 19.8371 6.32142C19.5476 6.20152 19.2538 6.09387 18.9564 5.99863C19.0009 6.08651 19.0421 6.17619 19.08 6.26749C19.2747 6.73762 19.3749 7.24151 19.3749 7.75039C19.3749 7.9294 19.3625 8.10781 19.338 8.28434ZM23.1197 25.1816C23.0211 25.1763 22.9226 25.1671 22.8245 25.1542C22.3199 25.0878 21.8335 24.9226 21.3928 24.6682C21.2379 24.5788 21.0897 24.4789 20.9492 24.3695C20.3671 24.7881 19.7373 25.1393 19.0717 25.4149C17.9394 25.884 16.7257 26.1254 15.5 26.1254C14.2744 26.1254 13.0607 25.884 11.9283 25.4149C11.2627 25.1392 10.6329 24.7881 10.0508 24.3694C9.91024 24.4789 9.76204 24.5787 9.60711 24.6682C9.16641 24.9226 8.67991 25.0878 8.1754 25.1542C8.07728 25.1671 7.97885 25.1762 7.88033 25.1816C8.84552 26.0582 9.95581 26.7627 11.1629 27.2627C12.538 27.8322 14.0117 28.1254 15.5 28.1254C16.9883 28.1254 18.4621 27.8322 19.8371 27.2627C21.0442 26.7627 22.1545 26.0582 23.1197 25.1816Z" fill="black"/>
</svg>
