<svg width="31" height="31" viewBox="0 0 31 31" fill="none" xmlns="http://www.w3.org/2000/svg">
<path d="M27.125 14.2083V19.125C27.125 22.8962 27.125 24.7819 25.9534 25.9534C24.7819 27.125 22.8962 27.125 19.125 27.125H11.875C8.10376 27.125 6.21815 27.125 5.04657 25.9534C3.875 24.7819 3.875 22.8962 3.875 19.125V11.875C3.875 8.10376 3.875 6.21815 5.04657 5.04657C6.21815 3.875 8.10376 3.875 11.875 3.875H15.5" stroke="black" stroke-width="2"/>
<path fill-rule="evenodd" clip-rule="evenodd" d="M25.125 18.544L24.0214 17.4403L24.0029 17.4219C23.7115 17.1305 23.4654 16.8844 23.2546 16.6947C23.0385 16.5002 22.8058 16.3148 22.5324 16.1811C21.3899 15.6224 20.0193 15.8449 19.1121 16.7362C18.895 16.9494 18.7329 17.1989 18.5894 17.4518C18.4494 17.6983 18.2937 18.0096 18.1095 18.3781L18.1094 18.3782L18.0977 18.4016C17.9885 18.6201 17.924 18.7484 17.8724 18.839L17.8608 18.8591L17.8447 18.8424C17.7727 18.767 17.679 18.6582 17.52 18.4727L11.0926 10.974C10.7332 10.5547 10.1019 10.5062 9.68254 10.8656C9.26321 11.225 9.21465 11.8563 9.57407 12.2756L16.0015 19.7743L16.0165 19.7918C16.1554 19.9539 16.2843 20.1042 16.3978 20.2232C16.5149 20.3459 16.67 20.4946 16.8719 20.6097C17.6404 21.0478 18.6055 20.929 19.2448 20.3175C19.4128 20.1569 19.5272 19.975 19.611 19.8276C19.6923 19.6847 19.7809 19.5075 19.8763 19.3166L19.8866 19.296C20.0857 18.8978 20.2178 18.6343 20.3286 18.4392C20.4388 18.2451 20.4928 18.1834 20.5137 18.1628C20.8161 17.8657 21.273 17.7916 21.6539 17.9778C21.6802 17.9907 21.751 18.0322 21.9169 18.1814C22.0837 18.3315 22.2924 18.5398 22.6072 18.8545L25.1119 21.3593C25.1241 20.7316 25.125 19.9975 25.125 19.1248V18.544Z" fill="black"/>
<path d="M27.125 3.875V2.875H28.125V3.875H27.125ZM21.2914 9.82254C20.8601 10.1675 20.2308 10.0976 19.8858 9.66636C19.5408 9.2351 19.6107 8.60581 20.042 8.2608L21.2914 9.82254ZM26.125 10.3333V3.875H28.125V10.3333H26.125ZM27.125 4.875H20.6667V2.875H27.125V4.875ZM27.7497 4.65587L21.2914 9.82254L20.042 8.2608L26.5003 3.09413L27.7497 4.65587Z" fill="black"/>
</svg>
