<svg width="34" height="34" viewBox="0 0 34 34" fill="none" xmlns="http://www.w3.org/2000/svg">
<path d="M29.75 14.1668L29.75 12.7502C29.75 11.4327 29.75 10.774 29.6052 10.2335C29.2122 8.76687 28.0666 7.6213 26.6 7.22831C26.0595 7.0835 25.4008 7.0835 24.0833 7.0835" stroke="#F2F2F2" stroke-width="2" stroke-linejoin="round"/>
<path d="M4.25 14.1668L4.25 12.7502C4.25 11.4327 4.25 10.774 4.39482 10.2335C4.7878 8.76687 5.93338 7.6213 7.40002 7.22831C7.94048 7.0835 8.59921 7.0835 9.91667 7.0835" stroke="#F2F2F2" stroke-width="2" stroke-linejoin="round"/>
<path d="M29.75 19.8335L29.75 21.2502C29.75 22.5676 29.75 23.2264 29.6052 23.7668C29.2122 25.2335 28.0666 26.379 26.6 26.772C26.0595 26.9168 25.4008 26.9168 24.0833 26.9168" stroke="#F2F2F2" stroke-width="2" stroke-linejoin="round"/>
<path d="M4.25 19.8335L4.25 21.2502C4.25 22.5676 4.25 23.2264 4.39482 23.7668C4.7878 25.2335 5.93338 26.379 7.40002 26.772C7.94048 26.9168 8.59921 26.9168 9.91667 26.9168" stroke="#F2F2F2" stroke-width="2" stroke-linejoin="round"/>
<path d="M17 21.25L17 12.75" stroke="#F2F2F2" stroke-width="2" stroke-linecap="round" stroke-linejoin="round"/>
<path d="M11.3333 19.8332L11.3333 14.1665" stroke="#F2F2F2" stroke-width="2" stroke-linecap="round" stroke-linejoin="round"/>
<path d="M22.6667 19.8332L22.6667 14.1665" stroke="#F2F2F2" stroke-width="2" stroke-linecap="round" stroke-linejoin="round"/>
</svg>
