<svg width="34" height="34" viewBox="0 0 34 34" fill="none" xmlns="http://www.w3.org/2000/svg">
<path fill-rule="evenodd" clip-rule="evenodd" d="M26.6311 7.35002C26.2522 7.41742 25.715 7.59373 24.8548 7.88046L14.0781 11.4727C11.8953 12.2003 10.3512 12.717 9.32671 13.2043C8.22256 13.7295 8.16746 14.0215 8.16289 14.067C8.15623 14.1334 8.15623 14.2003 8.16289 14.2667C8.16746 14.3122 8.22256 14.6042 9.32671 15.1294C10.3512 15.6167 11.8953 16.1334 14.0781 16.861C14.1273 16.8774 14.1761 16.8936 14.2245 16.9096C14.9337 17.1447 15.5627 17.3532 16.0434 17.7994C16.0978 17.8499 16.1503 17.9024 16.2008 17.9569C16.647 18.4375 16.8555 19.0665 17.0906 19.7757C17.1066 19.8241 17.1228 19.8729 17.1392 19.9221C17.8668 22.1049 18.3835 23.649 18.8708 24.6735C19.396 25.7776 19.688 25.8327 19.7335 25.8373C19.7999 25.844 19.8668 25.844 19.9332 25.8373C19.9787 25.8327 20.2707 25.7776 20.7959 24.6735C21.2832 23.649 21.7999 22.1049 22.5275 19.9221L26.1197 9.14536C26.4065 8.28519 26.5828 7.74797 26.6502 7.36906C26.6516 7.36117 26.6529 7.3535 26.6542 7.34603C26.6467 7.34729 26.639 7.34862 26.6311 7.35002ZM26.8901 7.32691C26.8899 7.32709 26.8866 7.32682 26.8809 7.32555C26.8874 7.32609 26.8903 7.32672 26.8901 7.32691ZM26.6747 7.11934C26.6734 7.11359 26.6731 7.1103 26.6733 7.11009C26.6735 7.10989 26.6741 7.11276 26.6747 7.11934ZM26.2809 5.38093C26.8319 5.28292 27.5864 5.25373 28.1664 5.83378C28.7465 6.41384 28.7173 7.16835 28.6193 7.71934C28.5229 8.26078 28.2965 8.93992 28.041 9.70622L28.0171 9.77782L24.4249 20.5545L24.4001 20.6289C23.7028 22.721 23.1486 24.3834 22.602 25.5326C22.0868 26.6157 21.3755 27.7027 20.1328 27.8273C19.9337 27.8473 19.733 27.8473 19.5339 27.8273C18.2911 27.7027 17.5799 26.6157 17.0647 25.5326C16.5181 24.3834 15.9639 22.721 15.2666 20.6289L15.2418 20.5545C14.9276 19.6119 14.8478 19.439 14.7351 19.3176C14.7182 19.2995 14.7007 19.282 14.6826 19.2651C14.5612 19.1524 14.3883 19.0726 13.4457 18.7584L13.3713 18.7336C11.2792 18.0363 9.61679 17.4821 8.46762 16.9355C7.38454 16.4203 6.29755 15.7091 6.17288 14.4663C6.1529 14.2672 6.1529 14.0665 6.17288 13.8674C6.29755 12.6247 7.38453 11.9134 8.46762 11.3982C9.61679 10.8516 11.2792 10.2974 13.3713 9.60011L13.4457 9.57532L24.2224 5.98309L24.294 5.95921C25.0603 5.7037 25.7394 5.47725 26.2809 5.38093Z" fill="#F2F2F2"/>
</svg>
