<svg width="35" height="35" viewBox="0 0 35 35" fill="none" xmlns="http://www.w3.org/2000/svg">
<path d="M10.3484 11.7026L9.36765 11.5075V11.5075L10.3484 11.7026ZM11.7151 8.68628L10.9218 8.07752L10.9218 8.07752L11.7151 8.68628ZM14.275 6.58547L13.8327 5.68859V5.68859L14.275 6.58547ZM20.725 6.58547L20.2827 7.48234L20.725 6.58547ZM23.2849 8.68628L22.4915 9.29504L23.2849 8.68628ZM24.6516 11.7026L23.6708 11.8977V11.8977L24.6516 11.7026ZM9.48194 13.0985L9.25267 12.1252L9.48194 13.0985ZM10.1681 12.5276L11.0836 12.93L10.1681 12.5276ZM11.3738 23.0406L10.6667 22.3335L11.3738 23.0406ZM23.6262 23.0406L24.3333 22.3335L23.6262 23.0406ZM25.5181 13.0985L25.2888 14.0719L25.5181 13.0985ZM24.6701 11.7992L23.6868 11.9811L24.6701 11.7992ZM24.8319 12.5276L23.9164 12.93L24.8319 12.5276ZM26.125 14.1252C28.058 14.1252 29.625 15.6922 29.625 17.6252H31.625C31.625 14.5876 29.1626 12.1252 26.125 12.1252V14.1252ZM29.625 17.6252V18.8335H31.625V17.6252H29.625ZM29.625 18.8335C29.625 20.7665 28.058 22.3335 26.125 22.3335V24.3335C29.1626 24.3335 31.625 21.8711 31.625 18.8335H29.625ZM26.125 22.3335H25.3333V24.3335H26.125V22.3335ZM24.3333 21.3335V17.1228H22.3333V21.3335H24.3333ZM24.3333 17.1228C24.3333 16.0183 23.4379 15.1228 22.3333 15.1228V17.1228H24.3333ZM22.3333 15.1228H12.6667V17.1228H22.3333V15.1228ZM12.6667 15.1228C11.5621 15.1228 10.6667 16.0183 10.6667 17.1228H12.6667H12.6667V15.1228ZM10.6667 17.1228V21.3335H12.6667V17.1228H10.6667ZM9.66667 22.3335H8.875V24.3335H9.66667V22.3335ZM8.875 22.3335C6.942 22.3335 5.375 20.7665 5.375 18.8335H3.375C3.375 21.8711 5.83743 24.3335 8.875 24.3335V22.3335ZM5.375 18.8335V17.6252H3.375V18.8335H5.375ZM5.375 17.6252C5.375 15.6922 6.942 14.1252 8.875 14.1252V12.1252C5.83743 12.1252 3.375 14.5876 3.375 17.6252H5.375ZM9.36765 11.5075C9.36038 11.5441 9.35335 11.5808 9.34657 11.6174L11.3132 11.9811C11.3184 11.9533 11.3237 11.9255 11.3292 11.8977L9.36765 11.5075ZM10.9218 8.07752C10.1475 9.08653 9.61578 10.2601 9.36765 11.5075L11.3292 11.8977C11.5175 10.9512 11.921 10.0607 12.5085 9.29504L10.9218 8.07752ZM13.8327 5.68859C12.692 6.25111 11.696 7.0685 10.9218 8.07752L12.5085 9.29504C13.096 8.5294 13.8517 7.90918 14.7173 7.48234L13.8327 5.68859ZM17.5 4.8335C16.2282 4.8335 14.9734 5.12607 13.8327 5.68859L14.7173 7.48234C15.5828 7.0555 16.5349 6.8335 17.5 6.8335V4.8335ZM21.1673 5.68859C20.0266 5.12607 18.7718 4.8335 17.5 4.8335V6.8335C18.4651 6.8335 19.4172 7.0555 20.2827 7.48234L21.1673 5.68859ZM24.0782 8.07752C23.304 7.0685 22.308 6.25111 21.1673 5.68859L20.2827 7.48234C21.1483 7.90917 21.904 8.5294 22.4915 9.29504L24.0782 8.07752ZM25.6323 11.5075C25.3842 10.2601 24.8525 9.08653 24.0782 8.07752L22.4915 9.29504C23.079 10.0607 23.4825 10.9512 23.6708 11.8977L25.6323 11.5075ZM25.6534 11.6174C25.6466 11.5807 25.6396 11.5441 25.6323 11.5075L23.6708 11.8977C23.6763 11.9255 23.6816 11.9533 23.6868 11.9811L25.6534 11.6174ZM8.875 14.1252C9.13459 14.1252 9.45408 14.1325 9.7112 14.0719L9.25267 12.1252C9.29375 12.1155 9.30316 12.1197 9.22502 12.1224C9.14991 12.125 9.04681 12.1252 8.875 12.1252V14.1252ZM9.34657 11.6174C9.30712 11.8307 9.2813 11.9698 9.2599 12.0699C9.24953 12.1184 9.24272 12.1456 9.23891 12.1593C9.23459 12.1748 9.23818 12.1581 9.25267 12.1252L11.0836 12.93C11.152 12.7744 11.1903 12.6067 11.2157 12.4882C11.2443 12.3543 11.276 12.1824 11.3132 11.9811L9.34657 11.6174ZM9.7112 14.0719C9.98905 14.0064 10.2798 13.8911 10.5411 13.6737C10.8024 13.4563 10.9687 13.1914 11.0836 12.93L9.25267 12.1252C9.23766 12.1593 9.22947 12.1704 9.23104 12.1682C9.23197 12.1669 9.23513 12.1626 9.24074 12.1564C9.24642 12.1502 9.25355 12.1433 9.26193 12.1363C9.27031 12.1293 9.27843 12.1236 9.28559 12.1191C9.29266 12.1147 9.29746 12.1124 9.29893 12.1117C9.30141 12.1106 9.28899 12.1166 9.25267 12.1252L9.7112 14.0719ZM10.6667 21.3335C10.6667 21.8332 10.6645 22.1073 10.639 22.2975C10.6173 22.4589 10.5963 22.4038 10.6667 22.3335L12.0809 23.7477C12.4441 23.3845 12.5696 22.9472 12.6211 22.564C12.6688 22.2096 12.6667 21.7766 12.6667 21.3335H10.6667ZM9.66667 24.3335C10.1098 24.3335 10.5428 24.3356 10.8972 24.288C11.2804 24.2364 11.7177 24.1109 12.0809 23.7477L10.6667 22.3335C10.737 22.2632 10.7921 22.2841 10.6307 22.3058C10.4405 22.3314 10.1663 22.3335 9.66667 22.3335V24.3335ZM25.3333 22.3335C24.8337 22.3335 24.5595 22.3314 24.3693 22.3058C24.2079 22.2841 24.263 22.2632 24.3333 22.3335L22.9191 23.7477C23.2823 24.1109 23.7196 24.2364 24.1028 24.288C24.4573 24.3356 24.8902 24.3335 25.3333 24.3335V22.3335ZM22.3333 21.3335C22.3333 21.7766 22.3312 22.2096 22.3789 22.564C22.4304 22.9472 22.5559 23.3845 22.9191 23.7477L24.3333 22.3335C24.4037 22.4038 24.3827 22.4589 24.361 22.2975C24.3355 22.1073 24.3333 21.8332 24.3333 21.3335H22.3333ZM26.125 12.1252C25.9532 12.1252 25.8501 12.125 25.775 12.1224C25.6968 12.1197 25.7062 12.1155 25.7473 12.1252L25.2888 14.0719C25.5459 14.1325 25.8654 14.1252 26.125 14.1252V12.1252ZM23.6868 11.9811C23.724 12.1824 23.7557 12.3543 23.7843 12.4882C23.8097 12.6067 23.848 12.7744 23.9164 12.93L25.7473 12.1252C25.7618 12.1581 25.7654 12.1748 25.7611 12.1593C25.7573 12.1456 25.7505 12.1184 25.7401 12.0699C25.7187 11.9698 25.6929 11.8307 25.6534 11.6174L23.6868 11.9811ZM25.7473 12.1252C25.711 12.1166 25.6986 12.1106 25.7011 12.1117C25.7025 12.1124 25.7073 12.1147 25.7144 12.1191C25.7216 12.1236 25.7297 12.1293 25.7381 12.1363C25.7465 12.1433 25.7536 12.1502 25.7593 12.1564C25.7649 12.1626 25.768 12.1669 25.769 12.1682C25.7705 12.1704 25.7623 12.1593 25.7473 12.1252L23.9164 12.93C24.0313 13.1914 24.1976 13.4563 24.4589 13.6737C24.7202 13.8911 25.0109 14.0064 25.2888 14.0719L25.7473 12.1252Z" fill="#F2F2F2"/>
<rect x="11.6667" y="16.0415" width="11.6667" height="14.5833" rx="2" stroke="#F2F2F2" stroke-width="2"/>
<path d="M16.7708 23.3335H18.2291" stroke="#F2F2F2" stroke-width="2" stroke-linecap="round"/>
</svg>
