<svg width="35" height="32" viewBox="0 0 35 32" fill="none" xmlns="http://www.w3.org/2000/svg">
<path d="M6.88903 5.47249C7.08268 4.76429 7.17951 4.41019 7.44821 4.20509C7.71691 4 8.08401 4 8.81821 4H26.1818C26.916 4 27.2831 4 27.5518 4.20509C27.8205 4.41019 27.9173 4.76429 28.111 5.47249L29.9482 12.1917C30.2519 13.3022 30.4037 13.8574 30.1323 14.2426C30.1177 14.2634 30.1022 14.2837 30.086 14.3033C29.7861 14.6667 29.2104 14.6667 28.0591 14.6667H27.8515C26.5261 14.6667 25.8634 14.6667 25.3643 14.3398C25.2354 14.2554 25.1167 14.1564 25.0106 14.0447C24.5995 13.6123 24.4806 12.9604 24.2429 11.6564C24.1804 11.3134 24.1491 11.1419 24.0854 11.1269C24.0703 11.1234 24.0547 11.1234 24.0396 11.1269C23.9759 11.1419 23.9446 11.3134 23.8821 11.6564L23.791 12.156C23.6408 12.9798 23.5657 13.3918 23.3715 13.7096C23.1421 14.085 22.7954 14.3742 22.3849 14.5326C22.0374 14.6667 21.6187 14.6667 20.7812 14.6667C19.9438 14.6667 19.5251 14.6667 19.1776 14.5326C18.7671 14.3742 18.4204 14.085 18.191 13.7096C17.9968 13.3918 17.9217 12.9798 17.7715 12.156L17.6804 11.6564C17.6179 11.3134 17.5866 11.1419 17.5229 11.1269C17.5078 11.1234 17.4922 11.1234 17.4771 11.1269C17.4134 11.1419 17.3821 11.3134 17.3196 11.6564L17.2285 12.156C17.0783 12.9798 17.0032 13.3918 16.809 13.7096C16.5796 14.085 16.2329 14.3742 15.8224 14.5326C15.4749 14.6667 15.0562 14.6667 14.2188 14.6667C13.3813 14.6667 12.9626 14.6667 12.6151 14.5326C12.2046 14.3742 11.8579 14.085 11.6285 13.7096C11.4343 13.3918 11.3592 12.9798 11.209 12.156L11.1179 11.6564C11.0554 11.3134 11.0241 11.1419 10.9604 11.1269C10.9453 11.1234 10.9297 11.1234 10.9146 11.1269C10.8509 11.1419 10.8196 11.3134 10.7571 11.6564C10.5194 12.9604 10.4005 13.6123 9.98942 14.0447C9.88328 14.1564 9.7646 14.2554 9.63574 14.3398C9.13661 14.6667 8.47391 14.6667 7.1485 14.6667H6.94088C5.78959 14.6667 5.21395 14.6667 4.91397 14.3033C4.89777 14.2837 4.88233 14.2634 4.86767 14.2426C4.59628 13.8574 4.74811 13.3022 5.05176 12.1916L6.88903 5.47249Z" fill="black"/>
<path fill-rule="evenodd" clip-rule="evenodd" d="M7.29899 16.1667C7.29169 16.5098 7.29169 16.8962 7.29169 17.3333V27.3333C7.29169 28.2761 7.29169 28.7475 7.58458 29.0404C7.87747 29.3333 8.34888 29.3333 9.29169 29.3333H14.5834V23.6667C14.5834 23.1144 15.0311 22.6667 15.5834 22.6667H19.4167C19.969 22.6667 20.4167 23.1144 20.4167 23.6667V29.3333H25.7084C26.6512 29.3333 27.1226 29.3333 27.4155 29.0404C27.7084 28.7475 27.7084 28.2761 27.7084 27.3333V17.3333C27.7084 16.8962 27.7084 16.5098 27.7011 16.1667C27.1269 16.1666 26.5932 16.1645 26.1432 16.1178C25.6237 16.0639 25.0691 15.9395 24.5424 15.5946C24.3716 15.4827 24.2111 15.3562 24.0625 15.2165C23.7352 15.5243 23.3495 15.7682 22.9249 15.932C22.3063 16.1707 21.6095 16.1688 20.9514 16.167C20.8944 16.1668 20.8376 16.1667 20.7813 16.1667C20.7249 16.1667 20.6682 16.1668 20.6112 16.167C19.9531 16.1688 19.2563 16.1707 18.6376 15.932C18.213 15.7682 17.8273 15.5243 17.5 15.2165C17.1727 15.5243 16.787 15.7682 16.3624 15.932C15.7438 16.1707 15.047 16.1688 14.3889 16.167C14.3319 16.1668 14.2751 16.1667 14.2188 16.1667C14.1624 16.1667 14.1057 16.1668 14.0487 16.167C13.3906 16.1688 12.6938 16.1707 12.0751 15.932C11.6505 15.7682 11.2648 15.5243 10.9375 15.2165C10.789 15.3562 10.6284 15.4827 10.4576 15.5946C9.9309 15.9395 9.3763 16.0639 8.85684 16.1178C8.40687 16.1645 7.87311 16.1666 7.29899 16.1667ZM16.5834 29.3333H18.4167V24.6667H16.5834V29.3333Z" fill="black"/>
</svg>
