<svg width="28" height="28" viewBox="0 0 28 28" fill="none" xmlns="http://www.w3.org/2000/svg">
<path d="M3.5 9.9165C3.5 7.80981 3.5 6.75646 4.00559 5.99979C4.22447 5.67222 4.50572 5.39097 4.83329 5.17209C5.58996 4.6665 6.64331 4.6665 8.75 4.6665H19.25C21.3567 4.6665 22.41 4.6665 23.1667 5.17209C23.4943 5.39097 23.7755 5.67222 23.9944 5.99979C24.5 6.75646 24.5 7.80981 24.5 9.9165V10.7915C24.5 11.2748 24.1082 11.6665 23.625 11.6665H23.3333C22.0447 11.6665 21 12.7112 21 13.9998V13.9998C21 15.2885 22.0447 16.3332 23.3333 16.3332H23.625C24.1082 16.3332 24.5 16.7249 24.5 17.2082V18.0832C24.5 20.1899 24.5 21.2432 23.9944 21.9999C23.7755 22.3274 23.4943 22.6087 23.1667 22.8276C22.41 23.3332 21.3567 23.3332 19.25 23.3332H8.75C6.64331 23.3332 5.58996 23.3332 4.83329 22.8276C4.50572 22.6087 4.22447 22.3274 4.00559 21.9999C3.5 21.2432 3.5 20.1899 3.5 18.0832V17.2082C3.5 16.7249 3.89175 16.3332 4.375 16.3332H4.66667C5.95533 16.3332 7 15.2885 7 13.9998V13.9998C7 12.7112 5.95533 11.6665 4.66667 11.6665H4.375C3.89175 11.6665 3.5 11.2748 3.5 10.7915V9.9165Z" stroke="#F2F2F2" stroke-width="2"/>
<path d="M13.4829 12.4698C13.6791 11.9623 13.7771 11.7086 13.9365 11.6734C13.9784 11.6642 14.0217 11.6642 14.0636 11.6734C14.2229 11.7086 14.321 11.9623 14.5171 12.4698C14.6287 12.7584 14.6845 12.9027 14.7888 13.0008C14.8181 13.0284 14.8499 13.0529 14.8837 13.074C15.0043 13.1495 15.1549 13.1635 15.456 13.1915C15.9658 13.2389 16.2207 13.2625 16.2986 13.4134C16.3147 13.4446 16.3257 13.4784 16.331 13.5134C16.3568 13.6824 16.1694 13.8593 15.7946 14.2132L15.6906 14.3114C15.5154 14.4769 15.4277 14.5596 15.3771 14.6628C15.3467 14.7247 15.3263 14.7914 15.3167 14.8602C15.3008 14.9749 15.3265 15.0949 15.3778 15.3349L15.3961 15.4206C15.4881 15.851 15.5341 16.0662 15.4767 16.172C15.4251 16.267 15.3301 16.3278 15.2251 16.333C15.1083 16.3388 14.9436 16.1995 14.6143 15.9211C14.3973 15.7376 14.2889 15.6459 14.1684 15.61C14.0584 15.5773 13.9417 15.5773 13.8316 15.61C13.7112 15.6459 13.6027 15.7376 13.3857 15.9211C13.0564 16.1995 12.8918 16.3388 12.7749 16.333C12.6699 16.3278 12.5749 16.267 12.5233 16.172C12.4659 16.0662 12.5119 15.851 12.6039 15.4206L12.6222 15.3349C12.6736 15.0949 12.6992 14.9749 12.6833 14.8602C12.6737 14.7914 12.6534 14.7247 12.623 14.6628C12.5723 14.5596 12.4847 14.4769 12.3095 14.3114L12.2054 14.2132C11.8306 13.8593 11.6432 13.6824 11.669 13.5134C11.6744 13.4784 11.6853 13.4446 11.7015 13.4134C11.7793 13.2625 12.0342 13.2389 12.544 13.1915C12.8451 13.1635 12.9957 13.1495 13.1163 13.074C13.1502 13.0529 13.182 13.0284 13.2112 13.0008C13.3156 12.9027 13.3714 12.7584 13.4829 12.4698Z" fill="#F2F2F2" stroke="#F2F2F2"/>
</svg>
