<svg width="39" height="39" viewBox="0 0 39 39" fill="none" xmlns="http://www.w3.org/2000/svg">
<rect x="3.25" y="4.875" width="32.5" height="14.625" rx="2" stroke="white" stroke-width="2"/>
<path d="M26 29.25V29.25C26 30.4173 26 31.001 25.7638 31.4428C25.5774 31.7916 25.2916 32.0774 24.9428 32.2638C24.501 32.5 23.9173 32.5 22.75 32.5H16.25C15.0827 32.5 14.499 32.5 14.0572 32.2638C13.7084 32.0774 13.4226 31.7916 13.2362 31.4428C13 31.001 13 30.4173 13 29.25V29.25" stroke="white" stroke-width="2"/>
<path d="M30.875 22.75V22.75C30.875 23.9173 30.875 24.501 30.6388 24.9428C30.4524 25.2916 30.1666 25.5774 29.8178 25.7638C29.376 26 28.7923 26 27.625 26H11.375C10.2077 26 9.62403 26 9.18221 25.7638C8.83335 25.5774 8.54762 25.2916 8.36116 24.9428C8.125 24.501 8.125 23.9173 8.125 22.75V22.75" stroke="white" stroke-width="2"/>
</svg>
